<?xml version="1.0" encoding="UTF-8" standalone="no"?>
<!DOCTYPE svg PUBLIC "-//W3C//DTD SVG 1.1//EN" "http://www.w3.org/Graphics/SVG/1.1/DTD/svg11.dtd">
<svg width="100%" height="100%" viewBox="0 0 135 32" version="1.1" xmlns="http://www.w3.org/2000/svg" xmlnsXlink="http://www.w3.org/1999/xlink" xmlSpace="preserve" xmlnsSerif="http://www.serif.com/" style="fill-rule:evenodd;clip-rule:evenodd;stroke-linejoin:round;stroke-miterlimit:2;">
    <g transform="matrix(1,0,0,1,-90,-803.195)">
        <g id="OpenseaDarkLight" transform="matrix(0.308924,0,0,0.308924,68.6842,688.664)">
            <g transform="matrix(1.1137,0,0,1.15026,69,370.74)">
                <path d="M90,45C90,69.851 69.851,90 45,90C20.149,90 0,69.851 0,45C0,20.149 20.149,0 45,0C69.857,0 90,20.149 90,45Z" style="fill:white;fill-rule:nonzero;"/>
            </g>
            <g transform="matrix(1.1137,0,0,1.15026,69,370.74)">
                <path d="M22.201,46.512L22.395,46.207L34.102,27.894C34.273,27.626 34.675,27.654 34.804,27.945C36.76,32.328 38.448,37.779 37.657,41.172C37.319,42.568 36.395,44.459 35.354,46.207C35.22,46.461 35.072,46.711 34.915,46.951C34.841,47.062 34.716,47.127 34.582,47.127L22.543,47.127C22.22,47.127 22.03,46.776 22.201,46.512Z" style="fill:rgb(32,129,226);fill-rule:nonzero;"/>
            </g>
            <g transform="matrix(1.1137,0,0,1.15026,69,370.74)">
                <path d="M74.38,49.915L74.38,52.814C74.38,52.98 74.278,53.128 74.13,53.193C73.224,53.581 70.122,55.005 68.832,56.799C65.54,61.381 63.025,67.932 57.403,67.932L33.949,67.932C25.636,67.932 18.9,61.173 18.9,52.832L18.9,52.564C18.9,52.342 19.08,52.162 19.302,52.162L32.377,52.162C32.636,52.162 32.826,52.402 32.802,52.657C32.71,53.507 32.867,54.376 33.269,55.167C34.046,56.743 35.655,57.728 37.393,57.728L43.866,57.728L43.866,52.675L37.467,52.675C37.139,52.675 36.945,52.296 37.134,52.028C37.204,51.921 37.282,51.81 37.366,51.686C37.971,50.826 38.836,49.49 39.696,47.968C40.283,46.942 40.852,45.846 41.309,44.746C41.402,44.547 41.476,44.344 41.55,44.145C41.675,43.794 41.804,43.465 41.896,43.137C41.989,42.86 42.063,42.568 42.137,42.296C42.354,41.362 42.447,40.372 42.447,39.346C42.447,38.944 42.428,38.523 42.391,38.121C42.373,37.682 42.317,37.242 42.262,36.803C42.225,36.415 42.155,36.031 42.081,35.629C41.989,35.042 41.859,34.459 41.712,33.872L41.661,33.65C41.55,33.248 41.457,32.864 41.328,32.462C40.963,31.2 40.542,29.97 40.098,28.819C39.936,28.361 39.751,27.922 39.566,27.483C39.294,26.821 39.016,26.22 38.762,25.652C38.632,25.393 38.521,25.157 38.411,24.917C38.286,24.644 38.156,24.371 38.027,24.112C37.934,23.913 37.828,23.728 37.754,23.543L36.963,22.082C36.852,21.884 37.037,21.648 37.255,21.708L42.202,23.049L42.216,23.049C42.225,23.049 42.229,23.053 42.234,23.053L42.886,23.234L43.603,23.437L43.866,23.511L43.866,20.571C43.866,19.151 45.003,18 46.409,18C47.112,18 47.75,18.287 48.207,18.754C48.665,19.221 48.952,19.859 48.952,20.571L48.952,24.935L49.479,25.083C49.52,25.097 49.562,25.115 49.599,25.143C49.728,25.24 49.913,25.384 50.149,25.559C50.334,25.707 50.533,25.887 50.773,26.072C51.25,26.456 51.818,26.951 52.442,27.519C52.609,27.663 52.771,27.811 52.919,27.959C53.723,28.708 54.625,29.586 55.484,30.557C55.725,30.83 55.961,31.107 56.201,31.398C56.442,31.694 56.696,31.986 56.918,32.277C57.209,32.665 57.523,33.067 57.796,33.488C57.926,33.687 58.074,33.89 58.198,34.089C58.55,34.621 58.859,35.171 59.155,35.721C59.28,35.975 59.41,36.253 59.521,36.526C59.849,37.261 60.108,38.01 60.274,38.759C60.325,38.921 60.362,39.096 60.381,39.254L60.381,39.29C60.436,39.512 60.455,39.748 60.473,39.989C60.547,40.756 60.51,41.524 60.344,42.296C60.274,42.624 60.182,42.934 60.071,43.262C59.96,43.576 59.849,43.905 59.706,44.214C59.428,44.857 59.1,45.5 58.712,46.101C58.587,46.323 58.439,46.558 58.291,46.78C58.129,47.016 57.963,47.238 57.815,47.455C57.611,47.733 57.394,48.024 57.172,48.283C56.973,48.556 56.77,48.828 56.548,49.069C56.238,49.434 55.942,49.781 55.632,50.114C55.447,50.331 55.249,50.553 55.045,50.752C54.846,50.974 54.643,51.172 54.458,51.357C54.148,51.667 53.889,51.908 53.672,52.106L53.164,52.573C53.09,52.638 52.992,52.675 52.891,52.675L48.952,52.675L48.952,57.728L53.908,57.728C55.018,57.728 56.072,57.335 56.922,56.614C57.214,56.36 58.485,55.259 59.988,53.6C60.038,53.544 60.103,53.503 60.177,53.484L73.867,49.527C74.121,49.453 74.38,49.647 74.38,49.915Z" style="fill:rgb(32,129,226);fill-rule:nonzero;"/>
            </g>
            <g transform="matrix(1,0,0,1,69,373)">
                <path d="M148.723,73.997C144.203,73.997 140.048,72.984 136.259,70.958C132.515,68.932 129.524,66.114 127.287,62.502C125.096,58.847 124,54.751 124,50.215C124,45.679 125.096,41.606 127.287,37.994C129.524,34.383 132.515,31.565 136.259,29.539C140.048,27.513 144.203,26.5 148.723,26.5C153.243,26.5 157.375,27.513 161.119,29.539C164.909,31.565 167.876,34.383 170.022,37.994C172.214,41.606 173.309,45.679 173.309,50.215C173.309,54.751 172.214,58.847 170.022,62.502C167.831,66.114 164.863,68.932 161.119,70.958C157.375,72.984 153.243,73.997 148.723,73.997ZM148.723,63.691C152.558,63.691 155.617,62.458 157.9,59.992C160.229,57.526 161.393,54.267 161.393,50.215C161.393,46.12 160.229,42.861 157.9,40.439C155.617,37.972 152.558,36.739 148.723,36.739C144.842,36.739 141.738,37.95 139.409,40.372C137.126,42.795 135.985,46.076 135.985,50.215C135.985,54.311 137.126,57.592 139.409,60.058C141.738,62.48 144.842,63.691 148.723,63.691Z" style="fill:rgb(4,17,29);fill-rule:nonzero;"/>
            </g>
            <g transform="matrix(1,0,0,1,69,373)">
                <path d="M191.536,41.892C192.677,40.174 194.252,38.787 196.261,37.73C198.27,36.673 200.621,36.145 203.315,36.145C206.465,36.145 209.319,36.915 211.876,38.457C214.432,39.998 216.441,42.2 217.902,45.063C219.409,47.925 220.162,51.25 220.162,55.038C220.162,58.825 219.409,62.172 217.902,65.079C216.441,67.941 214.432,70.165 211.876,71.751C209.319,73.292 206.465,74.063 203.315,74.063C200.667,74.063 198.316,73.534 196.261,72.477C194.252,71.42 192.677,70.055 191.536,68.382L191.536,84.5L179.825,84.5L179.825,36.673L191.536,36.673L191.536,41.892ZM208.246,55.038C208.246,52.219 207.424,50.017 205.78,48.432C204.182,46.802 202.196,45.987 199.822,45.987C197.494,45.987 195.508,46.802 193.864,48.432C192.266,50.061 191.467,52.285 191.467,55.104C191.467,57.922 192.266,60.146 193.864,61.776C195.508,63.405 197.494,64.22 199.822,64.22C202.151,64.22 204.137,63.405 205.78,61.776C207.424,60.102 208.246,57.856 208.246,55.038Z" style="fill:rgb(4,17,29);fill-rule:nonzero;"/>
            </g>
            <g transform="matrix(1,0,0,1,69,373)">
                <path d="M262.329,54.509C262.329,55.566 262.261,56.667 262.124,57.812L235.62,57.812C235.803,60.102 236.556,61.864 237.88,63.097C239.25,64.286 240.916,64.88 242.88,64.88C245.802,64.88 247.833,63.691 248.975,61.313L261.439,61.313C260.8,63.735 259.636,65.915 257.946,67.853C256.303,69.791 254.225,71.31 251.714,72.411C249.203,73.512 246.395,74.063 243.291,74.063C239.547,74.063 236.214,73.292 233.292,71.751C230.37,70.209 228.087,68.007 226.443,65.145C224.8,62.282 223.978,58.935 223.978,55.104C223.978,51.272 224.777,47.925 226.375,45.063C228.018,42.2 230.301,39.998 233.223,38.457C236.145,36.915 239.501,36.145 243.291,36.145C246.989,36.145 250.276,36.893 253.152,38.391C256.029,39.888 258.266,42.024 259.864,44.798C261.508,47.573 262.329,50.81 262.329,54.509ZM250.345,51.536C250.345,49.599 249.66,48.057 248.29,46.912C246.92,45.767 245.208,45.195 243.154,45.195C241.19,45.195 239.524,45.745 238.154,46.846C236.83,47.947 236.008,49.511 235.689,51.536L250.345,51.536Z" style="fill:rgb(4,17,29);fill-rule:nonzero;"/>
            </g>
            <g transform="matrix(1,0,0,1,69,373)">
                <path d="M291.793,36.277C296.267,36.277 299.828,37.686 302.476,40.505C305.17,43.279 306.517,47.111 306.517,51.999L306.517,73.534L294.874,73.534L294.874,53.518C294.874,51.052 294.212,49.136 292.888,47.771C291.564,46.406 289.784,45.723 287.547,45.723C285.309,45.723 283.529,46.406 282.205,47.771C280.881,49.136 280.219,51.052 280.219,53.518L280.219,73.534L268.508,73.534L268.508,36.673L280.219,36.673L280.219,41.562C281.406,39.932 283.004,38.655 285.013,37.73C287.021,36.761 289.281,36.277 291.793,36.277Z" style="fill:rgb(4,17,29);fill-rule:nonzero;"/>
            </g>
            <g transform="matrix(1,0,0,1,69,373)">
                <path d="M332.05,73.997C328.535,73.997 325.384,73.446 322.599,72.345C319.814,71.244 317.577,69.615 315.888,67.457C314.244,65.299 313.376,62.701 313.285,59.662L325.749,59.662C325.932,61.379 326.548,62.701 327.599,63.625C328.649,64.506 330.018,64.947 331.708,64.947C333.443,64.947 334.812,64.572 335.817,63.824C336.821,63.031 337.324,61.952 337.324,60.587C337.324,59.442 336.913,58.495 336.091,57.746C335.315,56.997 334.333,56.381 333.146,55.896C332.004,55.412 330.361,54.861 328.215,54.245C325.11,53.32 322.576,52.395 320.613,51.47C318.65,50.546 316.961,49.18 315.545,47.375C314.13,45.569 313.422,43.213 313.422,40.306C313.422,35.991 315.043,32.621 318.285,30.199C321.526,27.733 325.749,26.5 330.954,26.5C336.251,26.5 340.519,27.733 343.761,30.199C347.003,32.621 348.738,36.013 348.966,40.372L336.296,40.372C336.205,38.875 335.634,37.708 334.584,36.871C333.534,35.991 332.187,35.55 330.543,35.55C329.128,35.55 327.987,35.924 327.119,36.673C326.252,37.378 325.818,38.413 325.818,39.778C325.818,41.275 326.548,42.442 328.01,43.279C329.471,44.116 331.753,45.019 334.858,45.987C337.963,47 340.474,47.969 342.391,48.894C344.355,49.819 346.044,51.162 347.459,52.924C348.875,54.685 349.582,56.953 349.582,59.728C349.582,62.37 348.875,64.77 347.459,66.928C346.09,69.086 344.081,70.804 341.433,72.081C338.785,73.358 335.657,73.997 332.05,73.997Z" style="fill:rgb(4,17,29);fill-rule:nonzero;"/>
            </g>
            <g transform="matrix(1,0,0,1,69,373)">
                <path d="M392.813,54.509C392.813,55.566 392.744,56.667 392.607,57.812L366.103,57.812C366.286,60.102 367.039,61.864 368.363,63.097C369.733,64.286 371.4,64.88 373.363,64.88C376.285,64.88 378.317,63.691 379.458,61.313L391.922,61.313C391.283,63.735 390.119,65.915 388.43,67.853C386.786,69.791 384.709,71.31 382.197,72.411C379.686,73.512 376.878,74.063 373.774,74.063C370.03,74.063 366.697,73.292 363.775,71.751C360.853,70.209 358.57,68.007 356.926,65.145C355.283,62.282 354.461,58.935 354.461,55.104C354.461,51.272 355.26,47.925 356.858,45.063C358.501,42.2 360.784,39.998 363.706,38.457C366.628,36.915 369.984,36.145 373.774,36.145C377.472,36.145 380.759,36.893 383.636,38.391C386.512,39.888 388.749,42.024 390.347,44.798C391.991,47.573 392.813,50.81 392.813,54.509ZM380.828,51.536C380.828,49.599 380.143,48.057 378.773,46.912C377.403,45.767 375.691,45.195 373.637,45.195C371.674,45.195 370.007,45.745 368.637,46.846C367.313,47.947 366.491,49.511 366.172,51.536L380.828,51.536Z" style="fill:rgb(4,17,29);fill-rule:nonzero;"/>
            </g>
            <g transform="matrix(1,0,0,1,69,373)">
                <path d="M396.662,55.038C396.662,51.25 397.393,47.925 398.854,45.063C400.36,42.2 402.392,39.998 404.949,38.457C407.506,36.915 410.359,36.145 413.51,36.145C416.203,36.145 418.555,36.673 420.564,37.73C422.618,38.787 424.193,40.174 425.289,41.892L425.289,36.673L437,36.673L437,73.534L425.289,73.534L425.289,68.316C424.148,70.033 422.55,71.42 420.495,72.477C418.486,73.534 416.135,74.063 413.441,74.063C410.336,74.063 407.506,73.292 404.949,71.751C402.392,70.165 400.36,67.941 398.854,65.079C397.393,62.172 396.662,58.825 396.662,55.038ZM425.289,55.104C425.289,52.285 424.467,50.061 422.824,48.432C421.226,46.802 419.262,45.987 416.934,45.987C414.605,45.987 412.619,46.802 410.976,48.432C409.378,50.017 408.579,52.219 408.579,55.038C408.579,57.856 409.378,60.102 410.976,61.776C412.619,63.405 414.605,64.22 416.934,64.22C419.262,64.22 421.226,63.405 422.824,61.776C424.467,60.146 425.289,57.922 425.289,55.104Z" style="fill:rgb(4,17,29);fill-rule:nonzero;"/>
            </g>
        </g>
    </g>
</svg>
