<?xml version="1.0" encoding="UTF-8" standalone="no"?>
<!DOCTYPE svg PUBLIC "-//W3C//DTD SVG 1.1//EN" "http://www.w3.org/Graphics/SVG/1.1/DTD/svg11.dtd">
<svg width="100%" height="100%" viewBox="0 0 47 77" version="1.1" xmlns="http://www.w3.org/2000/svg" xmlnsXlink="http://www.w3.org/1999/xlink" xmlSpace="preserve" xmlnsSerif="http://www.serif.com/" style="fill-rule:evenodd;clip-rule:evenodd;stroke-linejoin:round;stroke-miterlimit:2;">
    <g transform="matrix(1,0,0,1,-158.95,-104)">
        <g transform="matrix(0.0305815,0,0,0.0305815,158.947,104)">
            <path d="M767.266,0L750.51,56.954L750.51,1709.64L767.266,1726.37L1534.42,1272.9L767.266,0Z" style="fill:rgb(52,52,52);fill-rule:nonzero;"/>
            <path d="M767.272,0L0.114,1272.9L767.272,1726.37L767.272,0Z" style="fill:rgb(140,140,140);fill-rule:nonzero;"/>
            <path d="M767.266,1871.62L757.824,1883.13L757.824,2471.86L767.266,2499.44L1534.89,1418.39L767.266,1871.62Z" style="fill:rgb(60,60,59);fill-rule:nonzero;"/>
            <path d="M767.272,2499.43L767.272,1871.61L0.114,1418.38L767.272,2499.43Z" style="fill:rgb(140,140,140);fill-rule:nonzero;"/>
            <path d="M767.266,1726.37L1534.41,1272.91L767.266,924.215L767.266,1726.37Z" style="fill:rgb(20,20,20);fill-rule:nonzero;"/>
            <path d="M0.114,1272.9L767.26,1726.37L767.26,924.209L0.114,1272.9Z" style="fill:rgb(57,57,57);fill-rule:nonzero;"/>
        </g>
    </g>
</svg>
