<?xml version="1.0" encoding="UTF-8" standalone="no"?>
<!DOCTYPE svg PUBLIC "-//W3C//DTD SVG 1.1//EN" "http://www.w3.org/Graphics/SVG/1.1/DTD/svg11.dtd">
<svg width="100%" height="100%" viewBox="0 0 26 23" version="1.1" xmlns="http://www.w3.org/2000/svg" xmlnsXlink="http://www.w3.org/1999/xlink" xmlSpace="preserve" xmlnsSerif="http://www.serif.com/" style="fill-rule:evenodd;clip-rule:evenodd;stroke-linecap:round;stroke-linejoin:round;stroke-miterlimit:1.5;">
    <g transform="matrix(1,0,0,1,-2315.5,-668.5)">
        <g id="Market-Icon" serifId="Market Icon" transform="matrix(0.833333,0,0,1,386,0)">
            <path d="M2338,677L2338,677C2338.01,679.203 2339.8,680.987 2342,681L2342,684.05C2342,687.382 2339.3,690.084 2335.97,690.084C2332.89,690.084 2329.15,690.084 2326.07,690.084C2322.72,690.084 2320,687.366 2320,684.013L2320,681C2322.2,680.987 2323.99,679.203 2324,677L2324,677.53C2324,678.45 2324.37,679.333 2325.02,679.984C2325.67,680.634 2326.55,681 2327.47,681L2327.47,681C2328.41,681 2329.3,680.628 2329.97,679.967C2330.63,679.305 2331,678.408 2331,677.472L2331,677.53C2331,678.45 2331.37,679.333 2332.02,679.984C2332.67,680.634 2333.55,681 2334.47,681L2334.47,681C2335.41,681 2336.3,680.628 2336.97,679.967C2337.63,679.305 2338,678.408 2338,677.472L2338,677ZM2334,690L2328,690L2328,687.012C2328,686.224 2328.31,685.469 2328.87,684.912C2329.43,684.355 2330.18,684.042 2330.97,684.042C2330.97,684.042 2330.97,684.042 2330.97,684.042C2332.64,684.042 2334,685.398 2334,687.07C2334,688.543 2334,690 2334,690Z" style="fill:rgb(51,57,68);stroke:rgb(51,57,68);stroke-width:1.09px;"/>
            <g id="Roof">
                <g transform="matrix(1,0,0,1.33333,-4,-223)">
                    <path d="M2328,669L2328,669C2323.58,669 2320,671.238 2320,674C2320,674.526 2320,675.043 2320,675.522C2320,676.891 2321.78,678 2323.97,678C2323.97,678 2323.97,678 2323.97,678C2326.19,678 2328,676.871 2328,675.478C2328,672.816 2328,669 2328,669Z" style="fill:none;stroke:rgb(51,57,68);stroke-width:0.9px;"/>
                </g>
                <g transform="matrix(-1,0,0,1.33333,4666,-223)">
                    <path d="M2328,669L2328,669C2323.58,669 2320,671.238 2320,674C2320,674.526 2320,675.043 2320,675.522C2320,676.891 2321.78,678 2323.97,678C2323.97,678 2323.97,678 2323.97,678C2326.19,678 2328,676.871 2328,675.478C2328,672.816 2328,669 2328,669Z" style="fill:none;stroke:rgb(51,57,68);stroke-width:0.9px;"/>
                </g>
                <g transform="matrix(0.875,0,0,1.33333,294,-223)">
                    <path d="M2328,669L2320,669L2320,675.836C2320,677.031 2321.77,678 2323.96,678C2323.96,678 2323.96,678 2323.96,678C2326.19,678 2328,677.011 2328,675.791C2328,673.126 2328,669 2328,669Z" style="fill:none;stroke:rgb(51,57,68);stroke-width:0.93px;"/>
                </g>
                <g transform="matrix(0.875,0,0,1.33333,301,-223)">
                    <path d="M2328,669L2320,669L2320,675.836C2320,677.031 2321.77,678 2323.96,678C2323.96,678 2323.96,678 2323.96,678C2326.19,678 2328,677.011 2328,675.791C2328,673.126 2328,669 2328,669Z" style="fill:none;stroke:rgb(51,57,68);stroke-width:0.93px;"/>
                </g>
            </g>
        </g>
    </g>
</svg>
