<?xml version="1.0" encoding="UTF-8" standalone="no"?>
<!DOCTYPE svg PUBLIC "-//W3C//DTD SVG 1.1//EN" "http://www.w3.org/Graphics/SVG/1.1/DTD/svg11.dtd">
<svg width="100%" height="100%" viewBox="0 0 25 24" version="1.1" xmlns="http://www.w3.org/2000/svg" xmlnsXlink="http://www.w3.org/1999/xlink" xmlSpace="preserve" xmlnsSerif="http://www.serif.com/" style="fill-rule:evenodd;clip-rule:evenodd;stroke-linejoin:round;stroke-miterlimit:2;">
    <g transform="matrix(1,0,0,1,-2364.5,-635)">
        <g id="Rankings-Icon" serifId="Rankings Icon">
            <g transform="matrix(0.670081,0,0,0.961272,787.715,25.5215)">
                <path d="M2363.57,642.095C2363.57,641.091 2362.4,640.275 2360.96,640.275L2355.74,640.275C2354.3,640.275 2353.13,641.091 2353.13,642.095L2353.13,657.179C2353.13,658.184 2354.3,659 2355.74,659L2360.96,659C2362.4,659 2363.57,658.184 2363.57,657.179L2363.57,642.095Z" style="fill:rgb(51,57,68);"/>
            </g>
            <g transform="matrix(0.670081,0,0,1.2817,796.715,-185.638)">
                <path d="M2363.57,641.64C2363.57,640.887 2362.4,640.275 2360.96,640.275L2355.74,640.275C2354.3,640.275 2353.13,640.887 2353.13,641.64L2353.13,657.635C2353.13,658.388 2354.3,659 2355.74,659L2360.96,659C2362.4,659 2363.57,658.388 2363.57,657.635L2363.57,641.64Z" style="fill:rgb(51,57,68);"/>
            </g>
            <g transform="matrix(0.670081,0,0,0.640848,805.715,236.681)">
                <path d="M2363.57,643.006C2363.57,641.498 2362.4,640.275 2360.96,640.275L2355.74,640.275C2354.3,640.275 2353.13,641.498 2353.13,643.006L2353.13,656.269C2353.13,657.776 2354.3,659 2355.74,659L2360.96,659C2362.4,659 2363.57,657.776 2363.57,656.269L2363.57,643.006Z" style="fill:rgb(51,57,68);"/>
            </g>
        </g>
    </g>
</svg>
