<?xml version="1.0" encoding="UTF-8" standalone="no"?>
<!DOCTYPE svg PUBLIC "-//W3C//DTD SVG 1.1//EN" "http://www.w3.org/Graphics/SVG/1.1/DTD/svg11.dtd">
<svg width="100%" height="100%" viewBox="0 0 25 27" version="1.1" xmlns="http://www.w3.org/2000/svg" xmlnsXlink="http://www.w3.org/1999/xlink" xmlSpace="preserve" xmlnsSerif="http://www.serif.com/" style="fill-rule:evenodd;clip-rule:evenodd;stroke-linejoin:round;stroke-miterlimit:2;">
    <g transform="matrix(1,0,0,1,-2243.66,-1073.78)">
        <g transform="matrix(5,0,0,5.37313,1345.63,-357.168)">
            <g id="Settings-Icon" serifId="Settings Icon" transform="matrix(0.3125,0,0,0.3125,93.6689,196.315)">
                <path d="M283.628,224.025C283.21,223.992 282.79,223.992 282.372,224.025C282.015,224.295 281.87,224.652 281.938,225.095C281.435,225.173 280.942,225.305 280.467,225.489C280.305,225.071 280.001,224.835 279.556,224.779C279.178,224.96 278.814,225.17 278.469,225.407C278.294,225.82 278.347,226.202 278.628,226.551C278.231,226.87 277.87,227.231 277.551,227.628C277.202,227.347 276.82,227.294 276.407,227.469C276.17,227.814 275.96,228.178 275.779,228.556C275.835,229.001 276.071,229.305 276.489,229.467C276.305,229.942 276.173,230.435 276.095,230.938C275.652,230.87 275.295,231.015 275.025,231.372C274.992,231.79 274.992,232.21 275.025,232.628C275.295,232.985 275.652,233.13 276.095,233.062C276.173,233.565 276.305,234.058 276.489,234.533C276.071,234.695 275.835,234.999 275.779,235.444C275.96,235.822 276.17,236.186 276.407,236.531C276.82,236.706 277.202,236.653 277.551,236.372C277.87,236.769 278.231,237.13 278.628,237.449C278.347,237.798 278.294,238.18 278.469,238.593C278.814,238.83 279.178,239.04 279.556,239.221C280.001,239.165 280.305,238.929 280.467,238.511C280.942,238.695 281.435,238.827 281.938,238.905C281.87,239.348 282.015,239.705 282.372,239.975C282.79,240.008 283.21,240.008 283.628,239.975C283.985,239.705 284.13,239.348 284.062,238.905C284.565,238.827 285.058,238.695 285.533,238.511C285.695,238.929 285.999,239.165 286.444,239.221C286.822,239.04 287.186,238.83 287.531,238.593C287.706,238.18 287.653,237.798 287.372,237.449C287.769,237.13 288.13,236.769 288.449,236.372C288.798,236.653 289.18,236.706 289.593,236.531C289.83,236.186 290.04,235.822 290.221,235.444C290.165,234.999 289.929,234.695 289.511,234.533C289.695,234.058 289.827,233.565 289.905,233.062C290.348,233.13 290.705,232.985 290.975,232.628C291.008,232.21 291.008,231.79 290.975,231.372C290.705,231.015 290.348,230.87 289.905,230.938C289.827,230.435 289.695,229.942 289.511,229.467C289.929,229.305 290.165,229.001 290.221,228.556C290.04,228.178 289.83,227.814 289.593,227.469C289.18,227.294 288.798,227.347 288.449,227.628C288.13,227.231 287.769,226.87 287.372,226.551C287.653,226.202 287.706,225.82 287.531,225.407C287.186,225.17 286.822,224.96 286.444,224.779C285.999,224.835 285.695,225.071 285.533,225.489C285.058,225.305 284.565,225.173 284.062,225.095C284.13,224.652 283.985,224.295 283.628,224.025ZM283,229.368C284.453,229.368 285.632,230.547 285.632,232C285.632,233.453 284.453,234.632 283,234.632C281.547,234.632 280.368,233.453 280.368,232C280.368,230.547 281.547,229.368 283,229.368Z" style="fill:rgb(51,57,68);"/>
            </g>
        </g>
    </g>
</svg>
